<?xml version="1.0" encoding="UTF-8"?>
<svg width="513px" height="48px" viewBox="0 0 513 48" version="1.1" xmlns="http://www.w3.org/2000/svg" xmlns:xlink="http://www.w3.org/1999/xlink">
    <!-- Generator: Sketch 50.2 (55047) - http://www.bohemiancoding.com/sketch -->
    <title>Combined Shape</title>
    <desc>Created with Sketch.</desc>
    <defs>
        <linearGradient x1="100%" y1="26.8048923%" x2="0%" y2="63.3433857%" id="linearGradient-1">
            <stop stop-color="#2385FF" offset="0%"></stop>
            <stop stop-color="#111ED7" offset="23.2004155%"></stop>
            <stop stop-color="#F60000" offset="100%"></stop>
        </linearGradient>
        <linearGradient x1="50%" y1="100%" x2="50%" y2="3.1295159%" id="linearGradient-2">
            <stop stop-color="#4C0089" offset="0%"></stop>
            <stop stop-color="#FFFFFF" stop-opacity="0" offset="100%"></stop>
        </linearGradient>
        <path d="M140.605,39.65 C140.605,42.1306791 140.513501,43.7573295 140.3305,44.53 C140.147499,45.3026705 139.751003,45.689 139.141,45.689 L125.477,45.689 C124.744996,45.5669994 124.175669,45.4856669 123.769,45.445 L122.122,45.201 C120.16999,44.7943313 118.675505,44.2758365 117.6385,43.6455 C116.601495,43.0151635 115.645838,42.0290067 114.7715,40.687 C113.897162,39.3449933 113.46,37.6573435 113.46,35.624 C113.46,34.688662 113.581999,33.6008395 113.826,32.3605 C114.070001,31.1201605 114.903659,29.7273411 116.327,28.182 C117.75034,26.6366589 119.681988,25.3353386 122.122,24.278 L123.952,23.607 L128.1,22.57 C128.75067,22.4886663 129.076,21.817673 129.076,20.557 C129.076,20.4349994 128.821836,19.8656717 128.3135,18.849 C127.805164,17.8323282 126.798674,17.324 125.294,17.324 C124.358662,17.324 123.413171,17.4968316 122.4575,17.8425 C121.501828,18.1881684 120.597004,18.8693282 119.743,19.886 L118.95,20.984 C118.827999,21.1873343 118.523002,21.217834 118.035,21.0755 C117.546997,20.933166 116.815005,20.465504 115.839,19.6725 C114.862995,18.879496 114.375,17.8120067 114.375,16.47 C114.375,15.0059927 114.974827,13.7453386 116.1745,12.688 C117.374173,11.6306614 118.685659,10.8885021 120.109,10.4615 C121.53234,10.0344979 122.609996,9.78033374 123.342,9.699 C124.074004,9.61766626 124.887329,9.577 125.782,9.577 C127.693343,9.577 129.33016,9.7498316 130.6925,10.0955 C132.05484,10.4411684 133.650991,11.1426614 135.481,12.2 C137.311009,13.2573386 138.612329,14.9449884 139.385,17.263 C140.15767,19.5810116 140.544,23.8916351 140.544,30.195 L140.544,35.014 C140.544,36.6000079 140.564333,38.1453258 140.605,39.65 Z M125.416,35.38 C125.619334,36.3560049 125.954831,37.077831 126.4225,37.5455 C126.890169,38.013169 127.428997,38.247 128.039,38.247 C128.852337,38.247 129.2895,37.9623362 129.3505,37.393 C129.4115,36.8236638 129.4725,36.3356687 129.5335,35.929 C129.5945,35.5223313 129.625,35.0546693 129.625,34.526 L129.625,33.001 C129.625,32.0249951 129.523334,31.3133356 129.32,30.866 C129.116666,30.4186644 128.649004,30.195 127.917,30.195 C127.632332,30.195 127.317168,30.2864991 126.9715,30.4695 C126.625831,30.6525009 126.259835,31.0794966 125.8735,31.7505 C125.487165,32.4215034 125.294,33.224662 125.294,34.16 C125.294,34.4040012 125.334666,34.8106638 125.416,35.38 Z M208.632,36.783 C210.502676,36.2136638 211.956495,35.4816711 212.9935,34.587 C214.030505,33.6923289 214.752331,32.5740067 215.159,31.232 C216.216338,32.6146736 216.745,34.1193252 216.745,35.746 C216.745,37.2913411 216.287504,38.8976583 215.3725,40.565 C214.457495,42.2323417 213.186675,43.5641617 211.56,44.5605 C209.933325,45.5568383 208.316841,46.1566657 206.7105,46.36 C205.104158,46.5633343 203.853671,46.665 202.959,46.665 C202.430331,46.665 202.023668,46.6446669 201.739,46.604 C197.916314,46.604 194.825678,45.434845 192.467,43.0965 C190.108321,40.758155 188.654503,38.186014 188.1055,35.38 C187.556497,32.573986 187.282,30.6423386 187.282,29.585 C187.282,24.1356394 188.278323,19.8046827 190.271,16.592 C192.263676,13.3793173 194.581653,11.376504 197.225,10.5835 C199.868346,9.79049603 201.982992,9.394 203.569,9.394 C207.432352,9.394 210.482322,10.3089908 212.719,12.139 C214.955678,13.9690092 216.074,16.2463197 216.074,18.971 C216.074,19.5403362 216.053667,19.987665 216.013,20.313 C215.972333,20.638335 215.850334,21.1263301 215.647,21.777 L215.159,23.119 C214.426996,24.7456748 213.369673,26.026662 211.987,26.962 C210.604326,27.897338 207.961019,29.0766595 204.057,30.5 L202.654,30.927 L202.166,31.171 C202.003332,31.2523337 201.698335,31.4759982 201.251,31.842 L200.58,32.513 C200.173331,33.0416693 199.97,33.6313301 199.97,34.282 C199.97,35.4206724 200.457995,36.2034979 201.434,36.6305 C202.410005,37.0575021 203.87399,37.271 205.826,37.271 C206.639337,37.271 207.574661,37.108335 208.632,36.783 Z M198.75,20.984 C198.668666,21.5533362 198.628,21.9193325 198.628,22.082 C198.628,23.1800055 199.075329,23.729 199.97,23.729 C200.580003,23.729 201.281496,23.5358353 202.0745,23.1495 C202.867504,22.7631647 203.497831,22.3971684 203.9655,22.0515 C204.433169,21.7058316 204.788999,21.2890024 205.033,20.801 C205.277001,20.3129976 205.399,19.7233368 205.399,19.032 C205.399,18.4219969 205.124503,17.9340018 204.5755,17.568 C204.026497,17.2019982 203.406337,17.0799994 202.715,17.202 C201.779662,17.4053344 200.935837,17.8729963 200.1835,18.605 C199.431163,19.3370037 198.953334,20.1299957 198.75,20.984 Z M296.028,30.805 L295.845,28.853 C295.845,22.8749701 297.14632,18.1780171 299.749,14.762 C302.351679,11.3459829 305.909977,9.638 310.424,9.638 C315.832693,9.638 319.939986,11.3459829 322.746,14.762 C325.552014,18.1780171 326.955,23.2409665 326.955,29.951 C326.955,30.561003 326.9245,31.0591647 326.8635,31.4455 C326.802499,31.8318353 326.568668,32.8789915 326.162,34.587 C325.104661,38.2470183 323.762675,40.9513246 322.136,42.7 C320.509325,44.4486754 318.862341,45.5263313 317.195,45.933 C315.527658,46.3396687 314.409336,46.5836663 313.84,46.665 C313.270664,46.7463337 312.66067,46.787 312.01,46.787 C310.911994,46.787 309.122679,46.553169 306.642,46.0855 C304.161321,45.617831 301.904343,44.1436791 299.871,41.663 C297.837656,39.1823209 296.556669,35.5630238 296.028,30.805 Z M307.191,27.023 L307.252,28.548 C307.252,30.2153417 307.455331,31.5979945 307.862,32.696 C308.268668,33.7940055 308.817663,34.6378304 309.509,35.2275 C310.200337,35.8171696 310.932329,36.112 311.705,36.112 C313.12834,36.112 314.16533,35.3190079 314.816,33.733 C315.100668,32.9196626 315.324332,32.1368371 315.487,31.3845 C315.649667,30.6321629 315.731,29.4833411 315.731,27.938 L315.731,26.657 L315.609,24.461 C315.405665,22.6716577 315.019336,21.1975058 314.45,20.0385 C313.880664,18.8794942 312.904673,18.3 311.522,18.3 C310.667995,18.3 309.88517,18.6354966 309.1735,19.3065 C308.46183,19.9775034 307.963668,20.7501623 307.679,21.6245 C307.394332,22.4988377 307.252,23.9729896 307.252,26.047 L307.191,27.023 Z M63.568,39.65 C63.568,42.1306791 63.4765009,43.7573295 63.2935,44.53 C63.1104991,45.3026705 62.714003,45.689 62.104,45.689 L48.44,45.689 C47.7079963,45.5669994 47.1386687,45.4856669 46.732,45.445 L45.085,45.201 C43.1329902,44.7943313 41.6385052,44.2758365 40.6015,43.6455 C39.5644948,43.0151635 38.6088377,42.0290067 37.7345,40.687 C36.8601623,39.3449933 36.423,37.6573435 36.423,35.624 C36.423,34.688662 36.5449988,33.6008395 36.789,32.3605 C37.0330012,31.1201605 37.8666595,29.7273411 39.29,28.182 C40.7133404,26.6366589 42.6449878,25.3353386 45.085,24.278 L46.915,23.607 L51.063,22.57 C51.7136699,22.4886663 52.039,21.817673 52.039,20.557 C52.039,20.4349994 51.7848358,19.8656717 51.2765,18.849 C50.7681641,17.8323282 49.7616742,17.324 48.257,17.324 C47.321662,17.324 46.3761714,17.4968316 45.4205,17.8425 C44.4648285,18.1881684 43.5600042,18.8693282 42.706,19.886 L41.913,20.984 C41.7909994,21.1873343 41.4860024,21.217834 40.998,21.0755 C40.5099975,20.933166 39.7780049,20.465504 38.802,19.6725 C37.8259951,18.879496 37.338,17.8120067 37.338,16.47 C37.338,15.0059927 37.9378273,13.7453386 39.1375,12.688 C40.3371726,11.6306614 41.6486595,10.8885021 43.072,10.4615 C44.4953404,10.0344979 45.5729963,9.78033374 46.305,9.699 C47.0370036,9.61766626 47.8503288,9.577 48.745,9.577 C50.6563429,9.577 52.2931598,9.7498316 53.6555,10.0955 C55.0178401,10.4411684 56.6139908,11.1426614 58.444,12.2 C60.2740091,13.2573386 61.5753294,14.9449884 62.348,17.263 C63.1206705,19.5810116 63.507,23.8916351 63.507,30.195 L63.507,35.014 C63.507,36.6000079 63.5273331,38.1453258 63.568,39.65 Z M48.379,35.38 C48.5823343,36.3560049 48.917831,37.077831 49.3855,37.5455 C49.853169,38.013169 50.3919969,38.247 51.002,38.247 C51.8153374,38.247 52.2524997,37.9623362 52.3135,37.393 C52.3745003,36.8236638 52.4354997,36.3356687 52.4965,35.929 C52.5575003,35.5223313 52.588,35.0546693 52.588,34.526 L52.588,33.001 C52.588,32.0249951 52.4863343,31.3133356 52.283,30.866 C52.0796656,30.4186644 51.6120036,30.195 50.88,30.195 C50.5953319,30.195 50.2801684,30.2864991 49.9345,30.4695 C49.5888316,30.6525009 49.2228352,31.0794966 48.8365,31.7505 C48.4501647,32.4215034 48.257,33.224662 48.257,34.16 C48.257,34.4040012 48.2976662,34.8106638 48.379,35.38 Z M17.568,46.665 C11.9559719,46.665 7.62501525,45.5161782 4.575,43.2185 C1.52498475,40.9208218 0,37.9420183 0,34.282 C0,34.0379988 0.02033313,33.7431684 0.061,33.3975 C0.10166687,33.0518316 0.132166565,32.7366681 0.1525,32.452 C0.172833435,32.1673319 0.233832825,31.8826681 0.3355,31.598 C0.437167175,31.3133319 0.58966565,30.8761696 0.793,30.2865 C0.99633435,29.6968304 1.25049848,29.1885021 1.5555,28.7615 C1.86050152,28.3344979 2.17566504,28.049834 2.501,27.9075 C2.82633496,27.765166 3.04999939,27.694 3.172,27.694 C3.5786687,27.694 3.86333252,27.8261653 4.026,28.0905 C4.18866748,28.3548347 4.30049969,28.558166 4.3615,28.7005 C4.4225003,28.842834 4.57499878,29.2393301 4.819,29.89 L4.941,30.378 L5.185,31.293 L5.307,31.842 C5.34766687,32.0860012 5.51033191,32.3808316 5.795,32.7265 C6.07966809,33.0721684 6.90315985,33.8346608 8.2655,35.014 C9.62784014,36.1933392 10.9291605,36.854166 12.1695,36.9965 C13.4098395,37.138834 14.1519988,37.21 14.396,37.21 L15.189,37.21 C16.2463386,37.21 17.171496,37.0880012 17.9645,36.844 C18.757504,36.5999988 19.4589969,36.0510043 20.069,35.197 C20.679003,34.3429957 20.984,33.448338 20.984,32.513 C20.984,31.6996626 20.6688365,30.8456711 20.0385,29.951 C19.4081635,29.0563289 18.8286693,28.4565015 18.3,28.1515 C17.7713307,27.8464985 15.6973514,26.9213411 12.078,25.376 C8.45864857,23.8306589 6.04917267,22.3361739 4.8495,20.8925 C3.64982733,19.4488261 2.80600244,18.1068395 2.318,16.8665 C1.82999756,15.6261605 1.586,14.375673 1.586,13.115 C1.586,12.8303319 1.60633313,12.5151684 1.647,12.1695 C1.68766687,11.8238316 1.80966565,10.8986742 2.013,9.394 C2.21633435,7.88932581 3.36515619,6.26267541 5.4595,4.514 C7.5538438,2.76532459 9.77015497,1.70800183 12.1085,1.342 C14.446845,0.97599817 15.920997,0.77266687 16.531,0.732 C17.141003,0.69133313 17.7306638,0.671 18.3,0.671 C20.0893423,0.671 22.1124887,1.00649664 24.3695,1.6775 C26.6265113,2.34850335 28.4158267,3.15166199 29.7375,4.087 C31.0591733,5.02233801 31.72,5.95766199 31.72,6.893 C31.72,7.21833496 31.3438371,8.31632398 30.5915,10.187 C29.8391629,12.057676 28.9343386,12.993 27.877,12.993 C27.3889976,12.993 26.840003,12.7896687 26.23,12.383 C25.6199969,11.9763313 25.0303362,11.4985027 24.461,10.9495 C23.8916638,10.4004973 23.4138353,10.0446675 23.0275,9.882 C22.6411647,9.71933252 22.0006711,9.51600122 21.106,9.272 C20.2113289,9.02799878 19.4183368,8.906 18.727,8.906 C17.791662,8.906 16.7343392,9.25166321 15.555,9.943 C14.3756608,10.6343368 13.786,11.6916595 13.786,13.115 C13.786,14.0910049 14.0909969,14.8738304 14.701,15.4635 C15.311003,16.0531696 15.7989982,16.4598322 16.165,16.6835 C16.5310018,16.9071678 17.181662,17.2426644 18.117,17.69 L24.644,20.313 C25.4980043,20.638335 26.3113295,21.0144979 27.084,21.4415 C27.8566705,21.8685021 29.1681574,22.8648255 31.0185,24.4305 C32.8688426,25.9961745 33.794,28.507316 33.794,31.964 C33.794,32.574003 33.7431672,33.2144966 33.6415,33.8855 C33.5398328,34.5565034 33.3873343,35.3393289 33.184,36.234 C32.9806656,37.1286711 32.5841696,38.0843282 31.9945,39.101 C31.4048304,40.1176717 30.5000061,41.1953276 29.28,42.334 C28.0599939,43.4726724 26.7790067,44.3469969 25.437,44.957 C24.0949933,45.5670031 22.8140061,46.0041653 21.594,46.2685 C20.3739939,46.5328347 19.0320073,46.665 17.568,46.665 Z M70.1009999,2.318 C70.2636674,1.38266199 70.4873319,0.762501525 70.7719999,0.4575 C71.056668,0.152498475 71.5446632,-2.84217094e-14 72.2359999,0 L81.1419999,0 C81.8333367,-2.84217094e-14 82.1789999,0.50832825 82.1789999,1.525 C82.1789999,2.46033801 81.9248358,4.10732154 81.4164999,6.466 C80.9081641,8.82467846 80.582834,11.2341544 80.4404999,13.6945 C80.2981659,16.1548456 80.2269999,19.8046425 80.2269999,24.644 C80.2269999,27.4906809 80.2676662,29.4934942 80.3489999,30.6525 C80.4303337,31.8115058 80.7251641,33.9261513 81.2334999,36.9965 C81.7418358,40.0668487 81.9959999,42.3136595 81.9959999,43.737 C81.9959999,44.5096705 81.924834,45.0281653 81.7824999,45.2925 C81.6401659,45.5568347 81.4063349,45.689 81.0809999,45.689 L70.7719999,45.689 C70.1619969,45.689 69.7350012,44.8146754 69.4909999,43.066 C69.2469987,41.3173246 69.1249999,37.8810256 69.1249999,32.757 C69.1249999,32.431665 69.0741671,30.7948481 68.9724999,27.8465 C68.8708328,24.8981519 68.8199999,21.7973496 68.8199999,18.544 C68.8199999,15.9413203 68.8708328,13.704676 68.9724999,11.834 C69.0741671,9.96332398 69.3283312,7.50301525 69.7349999,4.453 L69.7959999,4.148 L70.1009999,2.318 Z M84.4789999,36.844 C84.4789999,36.5593319 84.4688333,36.2441684 84.4484999,35.8985 C84.4281665,35.5528316 84.4179999,35.3393337 84.4179999,35.258 C84.4179999,34.0379939 84.5603318,33.1026699 84.8449999,32.452 C85.129668,31.8013301 85.6379963,31.1913362 86.3699999,30.622 C86.980003,30.8660012 87.3663324,31.0896656 87.5289999,31.293 C87.6916674,31.4963343 88.3829938,32.5739902 89.6029999,34.526 L90.2739999,35.38 C90.6806686,35.7866687 91.1076643,36.1018322 91.5549999,36.3255 C92.0023355,36.5491678 92.713995,36.7931653 93.6899999,37.0575 C94.6660048,37.3218347 95.4996631,37.454 96.1909999,37.454 C96.8416698,37.454 97.4008309,37.2405021 97.8684999,36.8135 C98.3361689,36.3864979 98.5699999,35.8273368 98.5699999,35.136 C98.5699999,34.2413289 98.2853361,33.4483368 97.7159999,32.757 C97.1466637,32.0656632 96.089341,31.3133374 94.5439999,30.5 L91.0669999,28.67 L90.8229999,28.487 C89.8876619,28.0396644 88.8303391,27.0535076 87.6509999,25.5285 C86.4716607,24.0034924 85.8819999,22.1633441 85.8819999,20.008 C85.8819999,19.1133289 86.1158309,17.8323417 86.5834999,16.165 C87.0511689,14.4976583 88.1694911,13.0031733 89.9384999,11.6815 C91.7075088,10.3598267 94.1169847,9.699 97.1669999,9.699 L99.1799999,9.699 C99.7086692,9.699 100.450828,9.77016595 101.4065,9.9125 C102.362171,10.054834 103.368661,10.2988316 104.426,10.6445 C105.483339,10.9901684 106.672827,11.6103289 107.9945,12.505 C109.316173,13.3996711 109.977,14.3756614 109.977,15.433 C109.977,16.3276711 109.580504,17.2833282 108.7875,18.3 C107.994496,19.3166717 107.516667,19.9063325 107.354,20.069 C107.191332,20.2316675 106.825336,20.475665 106.256,20.801 C105.686664,21.126335 105.259668,21.289 104.975,21.289 C104.649665,21.289 104.212503,20.9636699 103.6635,20.313 C103.114497,19.6623301 102.585836,19.032003 102.0775,18.422 C101.569164,17.811997 100.562674,17.507 99.0579999,17.507 C98.4479969,17.5883337 97.9193355,17.8018316 97.4719999,18.1475 C97.0246643,18.4931684 96.8009999,18.9709969 96.8009999,19.581 C96.8009999,19.906335 96.9026656,20.231665 97.1059999,20.557 C97.1466668,20.7196675 97.3499981,21.0043313 97.7159999,21.411 C98.0820017,21.8176687 98.9766595,22.4073295 100.4,23.18 C101.82334,23.9526705 103.368658,24.7863289 105.036,25.681 L106.256,26.474 C107.923342,27.7753398 109.11283,29.056327 109.8245,30.317 C110.53617,31.577673 110.892,33.0213252 110.892,34.648 C110.892,35.5020043 110.820834,36.2848298 110.6785,36.9965 C110.536166,37.7081702 110.363334,38.3181641 110.16,38.8265 C109.956666,39.3348359 109.489004,40.2091605 108.757,41.4495 C108.024996,42.6898395 106.998173,43.7268292 105.6765,44.5605 C104.354827,45.3941708 102.829842,45.9329988 101.1015,46.177 C99.3731579,46.4210012 97.9193391,46.543 96.7399999,46.543 C93.2019822,46.543 90.3350109,45.6483423 88.1389999,43.859 C85.9429889,42.0696577 84.7230011,39.7313478 84.4789999,36.844 Z M147.504,5.978 C147.707334,4.3513252 148.144497,3.24316961 148.8155,2.6535 C149.486503,2.06383038 150.614992,1.769 152.201,1.769 L157.996,1.769 C158.524669,1.769 159.08383,1.93166504 159.6735,2.257 C160.263169,2.58233496 160.934163,3.11099634 161.6865,3.843 C162.438837,4.57500366 163.394494,5.78482489 164.5535,7.4725 C165.712506,9.1601751 166.94266,11.1629884 168.244,13.481 C169.54534,15.7990116 170.663662,18.1373215 171.599,20.496 C171.843001,18.8286583 171.965,17.2223411 171.965,15.677 C171.965,14.6196614 171.904,13.5013392 171.782,12.322 L171.233,8.967 C170.907665,7.62499329 170.653501,6.37450579 170.4705,5.2155 C170.287499,4.05649421 170.196,3.25333557 170.196,2.806 C170.196,2.11466321 170.338332,1.769 170.623,1.769 L180.688,1.769 C180.972668,1.769 181.236999,2.08416352 181.481,2.7145 C181.725001,3.34483649 181.968999,4.35132642 182.213,5.734 C182.457001,7.11667358 182.639999,8.47899329 182.762,9.821 C182.884,11.1630067 182.945,12.931989 182.945,15.128 L183.128,20.923 L183.067,23.241 L182.823,35.685 C182.823,39.3856852 182.568836,41.9781592 182.0605,43.4625 C181.552164,44.9468408 180.97267,45.689 180.322,45.689 L170.074,45.689 C169.951999,45.689 169.799501,45.5568347 169.6165,45.2925 C169.433499,45.0281653 169.077669,44.3673386 168.549,43.31 L165.621,34.099 L164.523,30.988 C162.896325,27.1246474 161.686504,24.5016736 160.8935,23.119 C160.100496,21.7363264 159.114339,20.5366718 157.935,19.52 L157.935,21.716 C157.935,25.4166852 158.006166,28.3039896 158.1485,30.378 C158.290834,32.4520104 158.544998,34.4751568 158.911,36.4475 C159.277002,38.4198432 159.541332,40.0261605 159.704,41.2665 C159.866667,42.5068395 159.948,43.5133295 159.948,44.286 C159.948,45.221338 159.744669,45.689 159.338,45.689 L148.968,45.689 C147.869994,45.689 147.178668,44.2656809 146.894,41.419 C146.609332,38.5723191 146.467,31.4150573 146.467,19.947 L146.589,16.348 C146.589,14.7619921 146.609333,13.664003 146.65,13.054 C146.690667,12.443997 146.812666,11.1833429 147.016,9.272 L147.077,9.028 L147.504,5.978 Z M219.313,18.3 C219.313,15.1279841 219.394332,13.0438383 219.557,12.0475 C219.719667,11.0511617 220.044997,10.553 220.533,10.553 L230.293,10.553 C230.781002,10.553 231.085999,10.9799957 231.208,11.834 L231.086,18.971 L231.086,20.557 C231.086,24.298352 231.238498,26.7586608 231.5435,27.938 C231.848501,29.1173392 232.305997,29.8493319 232.916,30.134 C233.444669,30.4186681 233.790332,30.3170024 233.953,29.829 L234.624,26.596 L235.234,22.875 C235.518668,20.6383221 235.661,18.7880073 235.661,17.324 L235.661,16.165 C235.579666,15.6769976 235.498334,15.0670037 235.417,14.335 C235.335666,13.6029963 235.295,12.8303374 235.295,12.017 C235.295,11.4476638 235.376332,11.0613344 235.539,10.858 C235.701667,10.6546657 235.965998,10.553 236.332,10.553 L245.299,10.553 C245.502334,10.553 245.624333,10.6851653 245.665,10.9495 C245.705667,11.2138347 245.726,11.8746614 245.726,12.932 L245.726,20.6485 C245.726,21.2381696 245.746333,21.7566644 245.787,22.204 L246.153,25.62 C246.315667,27.0026736 246.478332,27.9379976 246.641,28.426 C246.803667,28.9140024 247.027332,29.2494991 247.312,29.4325 C247.596668,29.6155009 247.820332,29.707 247.983,29.707 C248.389668,29.707 248.633666,29.5240018 248.715,29.158 L249.264,26.23 C249.670668,23.0173173 249.924833,20.8823386 250.0265,19.825 C250.128167,18.7676614 250.179,17.5273405 250.179,16.104 L250.057,14.213 C250.016333,13.8469982 249.985833,13.4606687 249.9655,13.054 C249.945166,12.6473313 249.935,12.3830006 249.935,12.261 C249.935,11.1223276 250.19933,10.553 250.728,10.553 L259.268,10.553 C259.756002,10.553 260.132165,11.0104954 260.3965,11.9255 C260.660834,12.8405046 260.793,13.9079939 260.793,15.128 C260.793,16.5106736 260.650668,18.1169909 260.366,19.947 L259.268,26.962 L259.207,27.572 C258.759664,29.9306785 258.190337,31.9029921 257.499,33.489 C256.807663,35.0750079 255.719841,37.1489872 254.2355,39.711 C252.751159,42.2730128 251.439672,44.184327 250.301,45.445 C249.162327,46.705673 248.145671,47.336 247.251,47.336 C246.112327,47.336 244.933006,46.1973447 243.713,43.92 L241.944,40.504 L240.602,36.844 C240.561333,36.5593319 240.398668,36.417 240.114,36.417 C239.951332,36.417 239.809,36.4474997 239.687,36.5085 C239.564999,36.5695003 239.402334,36.8236644 239.199,37.271 C238.995665,37.7183356 238.56867,38.7349921 237.918,40.321 L235.783,43.92 C235.050996,45.0993392 234.461335,45.9329976 234.014,46.421 C233.566664,46.9090024 233.078669,47.153 232.55,47.153 C232.102664,47.153 231.604503,46.9700018 231.0555,46.604 C230.506497,46.2379982 229.87617,45.7398365 229.1645,45.1095 C228.45283,44.4791635 227.670004,43.6353386 226.816,42.578 C225.961996,41.5206614 225.108004,40.2295076 224.254,38.7045 C223.399996,37.1794924 222.627337,35.4613429 221.936,33.55 C221.244663,31.6386571 220.675335,29.6460104 220.228,27.572 L219.74,24.522 L219.74,23.973 L219.313,18.3 Z M263.117,13.603 C262.222329,9.86164796 261.775,7.09634228 261.775,5.307 C261.775,4.04632703 261.978331,3.14150274 262.385,2.5925 C262.791668,2.04349726 263.360996,1.769 264.093,1.769 L274.524,1.769 L274.89,1.952 C275.174668,2.19600122 275.388166,2.38916595 275.5305,2.5315 C275.672834,2.67383405 275.744,3.23299512 275.744,4.209 C275.744,4.94100366 275.733833,5.67299634 275.7135,6.405 C275.693166,7.13700366 275.683,7.86899634 275.683,8.601 L275.683,9.577 C275.683,10.3496705 275.794832,11.203662 276.0185,12.139 C276.242168,13.074338 276.658997,14.3146589 277.269,15.86 L278.123,17.507 C278.855003,18.6863392 279.627662,19.276 280.441,19.276 C280.766335,19.276 281.050999,19.1235015 281.295,18.8185 C281.539001,18.5134985 281.803332,18.1170024 282.088,17.629 C282.372668,17.1409976 282.596332,16.7546681 282.759,16.47 L284.345,13.542 L284.894,12.078 C285.178668,11.0613283 285.392166,10.1260043 285.5345,9.272 C285.676834,8.41799573 285.748,7.60467053 285.748,6.832 C285.748,5.81532825 285.727667,5.1036687 285.687,4.697 C285.646333,4.2903313 285.585334,3.86333557 285.504,3.416 C285.422666,2.96866443 285.503999,2.58233496 285.748,2.257 C285.992001,1.93166504 286.296998,1.769 286.663,1.769 L296.24,1.769 C297.01267,1.769 297.592165,2.04349726 297.9785,2.5925 C298.364835,3.14150274 298.558,4.06666016 298.558,5.368 C298.558,6.22200427 298.497,7.09632886 298.375,7.991 C298.252999,8.88567114 298.039501,9.87182794 297.7345,10.9495 C297.429498,12.0271721 297.114335,12.9218298 296.789,13.6335 C296.463665,14.3451702 295.935003,15.3516602 295.203,16.653 L289.53,24.644 L288.31,26.474 C286.439324,29.3206809 285.168503,31.6894905 284.4975,33.5805 C283.826496,35.4715095 283.491,37.7996528 283.491,40.565 L283.552,42.7 C283.552,44.6926766 283.206337,45.689 282.515,45.689 L271.779,45.689 C271.412998,45.689 271.108001,45.5466681 270.864,45.262 C270.619999,44.9773319 270.498,44.530003 270.498,43.92 L270.498,42.029 C270.498,40.5649927 270.640332,39.2636724 270.925,38.125 C271.209668,36.9863276 271.636664,35.7460067 272.206,34.404 C272.775336,33.0619933 273.181999,32.0961696 273.426,31.5065 C273.670001,30.9168304 273.792,30.5203343 273.792,30.317 C273.792,30.0729988 273.731,29.7680018 273.609,29.402 L269.461,24.888 L267.997,22.997 C266.69566,21.2076577 265.618004,19.4691751 264.764,17.7815 C263.909996,16.0938249 263.361001,14.7010055 263.117,13.603 Z M330.109,28.304 L330.109,18.971 C330.109,15.3923154 330.190332,13.0946718 330.353,12.078 C330.515667,11.0613283 330.901997,10.553 331.512,10.553 L340.662,10.553 C340.865334,10.7156675 341.038166,10.9189988 341.1805,11.163 C341.322834,11.4070012 341.454999,11.8136638 341.577,12.383 C341.699,12.9523362 341.881998,13.2979994 342.126,13.42 C342.370001,13.5420006 342.593665,13.5623337 342.797,13.481 C343.122335,13.2776656 343.457831,13.0031684 343.8035,12.6575 C344.149168,12.3118316 344.565997,11.8340031 345.054,11.224 C345.542002,10.613997 345.958831,10.2175009 346.3045,10.0345 C346.650168,9.85149908 347.036498,9.7295003 347.4635,9.6685 C347.890502,9.60749969 348.266665,9.577 348.592,9.577 C350.056007,9.577 351.336994,10.1259945 352.435,11.224 C353.20767,11.9153368 353.705832,12.7083289 353.9295,13.603 C354.153167,14.4976711 354.265,15.2093307 354.265,15.738 C354.265,17.608676 353.685506,19.0624948 352.5265,20.0995 C351.367494,21.1365052 350.442337,21.655 349.751,21.655 C349.547665,21.655 349.364667,21.5736675 349.202,21.411 L348.897,20.13 C348.571665,18.7066595 347.839672,17.995 346.701,17.995 C346.05033,17.995 345.267504,18.299997 344.3525,18.91 C343.437495,19.520003 342.827501,20.7399908 342.5225,22.57 C342.217498,24.4000091 342.065,28.0193063 342.065,33.428 L342.126,34.099 L343.712,44.774 C343.874667,45.384003 343.651003,45.689 343.041,45.689 L332.061,45.689 C331.41033,45.689 330.922335,44.0928493 330.597,40.9005 C330.271665,37.7081507 330.109,33.5093594 330.109,28.304 Z M355.552,18.3 C355.552,9.96329165 355.785831,4.82917632 356.2535,2.8975 C356.721169,0.965823675 357.869991,-2.84217094e-14 359.7,0 L368.179,0 C368.585668,-2.84217094e-14 368.860166,0.091499085 369.0025,0.2745 C369.144834,0.457500915 369.216,0.83366382 369.216,1.403 C369.216,2.33833801 368.850003,4.55464918 368.118,8.052 L367.447,15.067 C367.324999,16.3683398 367.264,17.2833307 367.264,17.812 C367.264,18.6253374 367.548664,19.4589957 368.118,20.313 C368.931337,19.6216632 369.531164,18.8286711 369.9175,17.934 C370.303835,17.0393289 370.618998,15.7380085 370.863,14.03 L371.046,13.298 C371.371335,12.1186608 371.625499,11.366335 371.8085,11.041 C371.991501,10.715665 372.204998,10.553 372.449,10.553 L382.026,10.553 C382.717336,10.553 383.063,11.1223276 383.063,12.261 C383.063,13.2776717 382.849502,14.4366602 382.4225,15.738 C381.995498,17.0393398 381.710834,17.852665 381.5685,18.178 C381.426166,18.503335 381.090669,19.133662 380.562,20.069 L379.769,21.472 L377.573,24.766 L377.329,25.62 C377.329,26.1893362 377.542498,26.7484973 377.9695,27.2975 C378.396502,27.8465027 379.169161,28.6394948 380.2875,29.6765 C381.405839,30.7135052 382.219164,31.6793289 382.7275,32.574 C383.235836,33.4686711 383.774664,34.7699915 384.344,36.478 C384.913336,38.1860085 385.330165,39.6194942 385.5945,40.7785 C385.858834,41.9375058 385.991,42.9439957 385.991,43.798 C385.991,44.4893368 385.909667,44.9773319 385.747,45.262 C385.584332,45.5466681 385.381001,45.689 385.137,45.689 L374.096,45.689 C373.648664,45.689 373.343667,45.3636699 373.181,44.713 L372.571,40.321 L372.51,39.955 L371.656,36.112 C371.330665,34.6479927 370.964668,33.5805034 370.558,32.9095 C370.151331,32.2384966 369.744668,31.8623337 369.338,31.781 C368.890664,31.6589994 368.555167,31.8013313 368.3315,32.208 C368.107832,32.6146687 367.996,34.4039841 367.996,37.576 C368.118,38.7553392 368.382331,39.8939945 368.789,40.992 C369.195668,42.0900055 369.399,43.0659957 369.399,43.92 C369.399,45.0993392 369.053336,45.689 368.362,45.689 L357.321,45.689 C356.832997,45.689 356.406002,44.1843484 356.04,41.175 C355.673998,38.1656516 355.491,32.2283777 355.491,23.363 L355.552,18.3 Z M393.805,46.665 C392.096991,46.665 390.633006,46.0550061 389.413,44.835 C388.192994,43.6149939 387.583,42.1510085 387.583,40.443 C387.583,38.7756583 388.192994,37.3320061 389.413,36.112 C390.633006,34.8919939 392.096991,34.282 393.805,34.282 C395.513008,34.282 396.966827,34.8818273 398.1665,36.0815 C399.366172,37.2811727 399.966,38.7553246 399.966,40.504 C399.966,42.2526754 399.366172,43.7166608 398.1665,44.896 C396.966827,46.0753392 395.513008,46.665 393.805,46.665 Z M426.202,21.411 L424.921,21.777 C424.676998,21.3296644 424.453334,20.943335 424.25,20.618 C424.046665,20.292665 423.61967,19.7945034 422.969,19.1235 C422.31833,18.4524966 421.423672,18.117 420.285,18.117 C418.617658,18.117 417.346837,18.8083264 416.4725,20.191 C415.598162,21.5736736 415.049167,22.8546608 414.8255,24.034 C414.601832,25.2133392 414.49,26.6163252 414.49,28.243 C414.49,31.049014 415.089827,33.2246589 416.2895,34.77 C417.489172,36.3153411 419.06499,37.088 421.017,37.088 C421.871004,37.088 422.877494,36.9050018 424.0365,36.539 C425.195505,36.1729982 426.405327,35.1563417 427.666,33.489 L428.337,32.452 C429.516339,32.8586687 430.106,33.9566577 430.106,35.746 C430.106,36.4780037 429.984001,37.7183246 429.74,39.467 C429.495998,41.2156754 428.36751,42.8626589 426.3545,44.408 C424.34149,45.9533411 421.688016,46.726 418.394,46.726 L417.296,46.726 C416.76733,46.6446663 415.801507,46.5430006 414.3985,46.421 C412.995493,46.2989994 411.389175,45.5975064 409.5795,44.3165 C407.769824,43.0354936 406.224506,41.225845 404.9435,38.8875 C403.662493,36.549155 403.022,33.6110177 403.022,30.073 C403.022,28.202324 403.235497,26.0470122 403.6625,23.607 C404.089502,21.1669878 405.167158,18.6355131 406.8955,16.0125 C408.623842,13.3894869 410.850319,11.681504 413.575,10.8885 C416.29968,10.095496 418.475325,9.699 420.102,9.699 C423.762018,9.699 426.252826,10.5834912 427.5745,12.3525 C428.896173,14.1215088 429.557,15.5956608 429.557,16.775 C429.557,17.7916718 429.262169,18.7168292 428.6725,19.5505 C428.08283,20.3841708 427.259338,21.0043313 426.202,21.411 Z M432.43,30.805 L432.247,28.853 C432.247,22.8749701 433.54832,18.1780171 436.151,14.762 C438.753679,11.3459829 442.311977,9.638 446.826,9.638 C452.234693,9.638 456.341986,11.3459829 459.148,14.762 C461.954014,18.1780171 463.357,23.2409665 463.357,29.951 C463.357,30.561003 463.3265,31.0591647 463.2655,31.4455 C463.204499,31.8318353 462.970668,32.8789915 462.564,34.587 C461.506661,38.2470183 460.164674,40.9513246 458.538,42.7 C456.911325,44.4486754 455.264341,45.5263313 453.597,45.933 C451.929658,46.3396687 450.811336,46.5836663 450.242,46.665 C449.672663,46.7463337 449.06267,46.787 448.412,46.787 C447.313994,46.787 445.524679,46.553169 443.044,46.0855 C440.563321,45.617831 438.306343,44.1436791 436.273,41.663 C434.239656,39.1823209 432.958669,35.5630238 432.43,30.805 Z M443.593,27.023 L443.654,28.548 C443.654,30.2153417 443.857331,31.5979945 444.264,32.696 C444.670668,33.7940055 445.219663,34.6378304 445.911,35.2275 C446.602336,35.8171696 447.334329,36.112 448.107,36.112 C449.53034,36.112 450.56733,35.3190079 451.218,33.733 C451.502668,32.9196626 451.726332,32.1368371 451.889,31.3845 C452.051667,30.6321629 452.133,29.4833411 452.133,27.938 L452.133,26.657 L452.011,24.461 C451.807665,22.6716577 451.421336,21.1975058 450.852,20.0385 C450.282663,18.8794942 449.306673,18.3 447.924,18.3 C447.069995,18.3 446.28717,18.6354966 445.5755,19.3065 C444.863829,19.9775034 444.365668,20.7501623 444.081,21.6245 C443.796332,22.4988377 443.654,23.9729896 443.654,26.047 L443.593,27.023 Z M467.633,17.08 C467.633,14.5586541 467.805831,12.8405046 468.1515,11.9255 C468.497168,11.0104954 469.015663,10.553 469.707,10.553 L479.345,10.553 C479.589001,10.553 479.832998,10.7258316 480.077,11.0715 C480.321001,11.4171684 480.443,11.894997 480.443,12.505 L480.26,13.42 L481.114,12.688 C483.391344,11.0206583 485.485657,10.187 487.397,10.187 C488.861007,10.187 490.467324,10.654662 492.216,11.59 L493.192,12.2 L495.388,11.163 C497.828012,10.2683289 499.901991,9.821 501.61,9.821 C505.351352,9.821 508.126824,11.6814814 509.9365,15.4025 C511.746175,19.1235186 512.651,24.8676278 512.651,32.635 L512.529,35.319 L512.468,35.99 L511.919,41.846 C511.919,43.3100073 511.786834,44.3164973 511.5225,44.8655 C511.258165,45.4145027 510.861669,45.689 510.333,45.689 L500.451,45.689 C499.92233,45.689 499.658,45.2416711 499.658,44.347 C499.658,43.1676608 499.901997,41.1648475 500.39,38.3385 C500.878002,35.5121525 501.132166,33.9058353 501.1525,33.5195 C501.172833,33.1331647 501.183,32.8180012 501.183,32.574 C501.183,29.2799835 501.122,26.6468432 501,24.6745 C500.877999,22.7021568 500.695001,21.3805034 500.451,20.7095 C500.206998,20.0384966 499.902001,19.5200018 499.536,19.154 C499.169998,18.7879982 498.682003,18.605 498.072,18.605 C497.461997,18.605 497.014668,18.7981647 496.73,19.1845 C496.445331,19.5708353 496.262333,20.0486638 496.181,20.618 C496.099666,21.1873362 496.059,22.2243258 496.059,23.729 L496.059,29.341 C496.059,36.539036 495.886168,41.0631574 495.5405,42.9135 C495.194831,44.7638426 494.412006,45.689 493.192,45.689 L483.31,45.689 C483.025331,45.689 482.883,45.4653356 482.883,45.018 L483.981,40.626 C484.103,40.0566638 484.285998,39.1620061 484.53,37.942 C484.774001,36.7219939 484.896,34.5666821 484.896,31.476 L484.957,27.511 C484.957,25.2743221 484.885834,23.7086711 484.7435,22.814 C484.601166,21.9193289 484.326668,21.1060037 483.92,20.374 C483.513331,19.6419963 482.903337,19.276 482.09,19.276 C481.357996,19.276 480.737835,19.5708304 480.2295,20.1605 C479.721164,20.7501696 479.406,22.0108237 479.284,23.9425 C479.161999,25.8741763 479.101,29.1173106 479.101,33.672 L479.101,37.942 L479.467,40.626 C479.629667,41.4800043 479.751666,42.140831 479.833,42.6085 C479.914333,43.076169 479.955,43.5336644 479.955,43.981 C479.955,44.6316699 479.792335,45.0789988 479.467,45.323 C479.141665,45.5670012 478.572337,45.689 477.759,45.689 L469.158,45.689 C468.588663,45.689 468.141335,44.6723435 467.816,42.639 C467.490665,40.6056565 467.328,36.620363 467.328,30.683 L467.633,17.08 Z" id="path-3"></path>
    </defs>
    <g id="Page-4" stroke="none" stroke-width="1" fill="none" fill-rule="evenodd">
        <g id="Combined-Shape">
            <use fill="url(#linearGradient-1)" xlink:href="#path-3"></use>
            <use fill-opacity="0.599999964" fill="url(#linearGradient-2)" xlink:href="#path-3"></use>
        </g>
    </g>
</svg>